<?xml version="1.0" encoding="UTF-8"?>
<svg id="Ebene_3" data-name="Ebene 3" xmlns="http://www.w3.org/2000/svg" viewBox="0 0 53.41 75.16">
  <defs>
    <style>
      .cls-1 {
        fill: #1d1d1b;
      }
    </style>
  </defs>
  <path class="cls-1" d="M30.77,41.45h5.69v-7.73h-8.32v-6.05c2.51-.17,4.82-.54,6.94-1.11,2.12-.58,3.95-1.42,5.49-2.53,1.54-1.11,2.75-2.54,3.61-4.29,.87-1.75,1.29-3.88,1.29-6.39V2.83h-7.71V12.67c0,2.55-.77,4.48-2.31,5.8-1.54,1.32-3.98,2.14-7.31,2.47V2.83h-7.71V20.94c-3.33-.33-5.75-1.15-7.25-2.47-1.5-1.32-2.25-3.25-2.25-5.8V2.83H3.21V13.35c0,2.51,.43,4.64,1.3,6.39,.86,1.75,2.05,3.18,3.58,4.29,1.52,1.11,3.33,1.96,5.43,2.53,2.1,.58,4.4,.95,6.91,1.11v6.05h-6.18v7.73h7.31l6.24,6.3L6.73,62.21v9.64l26.51-18.85,17.61,17.61v-9.52l-20.09-19.65Z"/>
</svg>